<?xml version="1.0" encoding="UTF-8"?>
<svg width="100" height="100" viewBox="0 0 100 100" xmlns="http://www.w3.org/2000/svg">
  <!-- Background Circle -->
  <circle cx="50" cy="50" r="45" fill="#fc7f03"/>
  <circle cx="50" cy="50" r="45" fill="url(#gradient)" opacity="0.3"/>
  
  <!-- Gradient Definition -->
  <defs>
    <linearGradient id="gradient" x1="0%" y1="0%" x2="100%" y2="100%">
      <stop offset="0%" style="stop-color:#ffffff;stop-opacity:0.2" />
      <stop offset="100%" style="stop-color:#000000;stop-opacity:0.1" />
    </linearGradient>
  </defs>
  
  <!-- Shield Shape -->
  <path d="M30 25 L70 25 L70 35 L60 75 L40 75 L30 35 Z" fill="white" opacity="0.9"/>
  
  <!-- Medical Cross -->
  <rect x="45" y="35" width="10" height="3" fill="#fc7f03"/>
  <rect x="48" y="32" width="4" height="9" fill="#fc7f03"/>
  
  <!-- Blockchain Pattern -->
  <circle cx="35" cy="50" r="3" fill="none" stroke="#fc7f03" stroke-width="2"/>
  <circle cx="50" cy="50" r="3" fill="none" stroke="#fc7f03" stroke-width="2"/>
  <circle cx="65" cy="50" r="3" fill="none" stroke="#fc7f03" stroke-width="2"/>
  <line x1="38" y1="50" x2="47" y2="50" stroke="#fc7f03" stroke-width="2"/>
  <line x1="53" y1="50" x2="62" y2="50" stroke="#fc7f03" stroke-width="2"/>
  
  <!-- QR Code Corner -->
  <rect x="55" y="60" width="3" height="3" fill="#fc7f03"/>
  <rect x="60" y="60" width="3" height="3" fill="#fc7f03"/>
  <rect x="65" y="60" width="3" height="3" fill="#fc7f03"/>
  <rect x="55" y="65" width="3" height="3" fill="#fc7f03"/>
  <rect x="65" y="65" width="3" height="3" fill="#fc7f03"/>
</svg>